<?xml version="1.0" encoding="UTF-8" standalone="no"?>
<!DOCTYPE svg PUBLIC "-//W3C//DTD SVG 1.1//EN" "http://www.w3.org/Graphics/SVG/1.1/DTD/svg11.dtd">
<svg width="100%" height="100%" viewBox="0 0 86 86" version="1.1" xmlns="http://www.w3.org/2000/svg" xmlns:xlink="http://www.w3.org/1999/xlink" xml:space="preserve" xmlns:serif="http://www.serif.com/" style="fill-rule:evenodd;clip-rule:evenodd;stroke-linejoin:round;stroke-miterlimit:2;">
    <g id="Complete-icon" serif:id="Complete icon">
        <g id="Background" transform="matrix(-1,-1.22465e-16,1.22465e-16,-1,86,86)">
            <circle cx="43" cy="43" r="42.7" style="fill:url(#_Linear1);"/>
        </g>
        <g id="Border" transform="matrix(0.158289,0,0,0.158289,-1.07474,-5.61842)">
            <path d="M483.29,307.15C483.29,420.28 391.58,512 278.45,512C165.32,512 73.6,420.28 73.6,307.15C73.6,194.02 165.31,102.3 278.45,102.3C391.59,102.3 483.29,194 483.29,307.15Z" style="fill:white;fill-opacity:0.8;fill-rule:nonzero;"/>
        </g>
        <g id="Earth">
            <g transform="matrix(0.202003,1.38778e-17,-1.38778e-17,0.202003,-13.2482,-19.1736)">
                <path d="M427.08,307.79C427.08,389.331 359.981,456.43 278.44,456.43C196.899,456.43 129.8,389.331 129.8,307.79C129.8,226.249 196.899,159.15 278.44,159.15C278.443,159.15 278.447,159.15 278.45,159.15C359.986,159.15 427.08,226.244 427.08,307.78C427.08,307.783 427.08,307.787 427.08,307.79Z" style="fill:rgb(141,200,252);"/>
            </g>
            <g transform="matrix(0.202003,1.38778e-17,-1.38778e-17,0.202003,-13.2482,-19.1736)">
                <path d="M367.73,426.66L344.17,363.05L300.23,348.23L315.47,311.23L321.21,286.63L332.94,277.13L332.94,268.87L365.16,231.87L350,224.39L365,199.25L375.69,195.32C408.324,223.556 427.105,264.641 427.105,307.794C427.105,354.504 405.101,398.585 367.77,426.66L367.73,426.66ZM330,168.34C309.393,160.715 287.345,157.773 265.46,159.73L265.28,160.03L278.95,164.54L281,183.09L276.95,200.29L278.95,220.57L319.1,187.2L330,168.34ZM220.33,279.83L248,269.1L253.51,257.4L228.22,236.07L201.2,254.56L187.11,249.34L188.11,225.05L212.91,205.05L225.29,207.46L238.02,210.04L245.25,205.04L227.38,185.43L203.3,185.43L188.65,189.25C147.953,220.147 125.913,269.92 130.39,320.82L146.53,340L170.9,346.33L165.79,336L150.43,331.19L148.94,318.78L158.75,308.86L168.9,309.4L188.14,316.57L192.29,300.93L205.71,279.88L220.33,279.83ZM203.07,435.89C212.542,441.477 222.603,445.998 233.07,449.37L237.14,444.18L248.31,429.13L266.5,418.77L271.75,397.09L271.75,386.09L238.13,373.69L232.53,361.13L219.81,355.62L183.05,355.62L183.05,359.94L185.93,378.86L189.18,392.73L203.46,434.73L203.07,435.89Z" style="fill:rgb(30,156,254);"/>
            </g>
        </g>
        <g id="Clock" transform="matrix(0.202003,1.38778e-17,-1.38778e-17,0.202003,-3.8719,-4.29407)">
            <g transform="matrix(1,0,0,1,-46.4165,-73.6602)">
                <path d="M323,316.69C323,316.693 323,316.697 323,316.7C323,341.562 302.542,362.02 277.68,362.02C252.818,362.02 232.36,341.562 232.36,316.7C232.36,291.838 252.818,271.38 277.68,271.38C277.683,271.38 277.687,271.38 277.69,271.38C302.544,271.385 322.995,291.836 323,316.69Z" style="fill:rgb(26,138,225);"/>
            </g>
            <g transform="matrix(-0.207731,0.978186,-0.978186,-0.207731,599.292,37.4528)">
                <path d="M214.05,229.63L275.91,293.84C276.401,293.809 276.893,293.794 277.385,293.794C290.337,293.794 300.995,304.452 300.995,317.404C300.995,325.943 296.363,333.842 288.91,338.01L288.39,338.28L274.53,401.76C273.258,407.597 268.046,411.796 262.072,411.796C261.153,411.796 260.237,411.697 259.34,411.5L258.25,411.26C252.443,410 248.26,404.822 248.25,398.88C248.25,397.939 248.35,397 248.55,396.08L261.86,335.13C254.65,328.792 251.995,318.659 255.17,309.6L195.42,247.6C193.193,245.29 191.948,242.203 191.948,238.995C191.948,235.625 193.322,232.397 195.75,230.06L196.52,229.32C201.416,224.603 209.324,224.743 214.05,229.63Z" style="fill:rgb(253,255,255);fill-rule:nonzero;"/>
            </g>
        </g>
    </g>
    <defs>
        <linearGradient id="_Linear1" x1="0" y1="0" x2="1" y2="0" gradientUnits="userSpaceOnUse" gradientTransform="matrix(60.3871,60.3871,-60.3871,60.3871,12.8064,12.8066)"><stop offset="0" style="stop-color:rgb(30,155,255);stop-opacity:1"/><stop offset="0.01" style="stop-color:rgb(30,155,255);stop-opacity:1"/><stop offset="1" style="stop-color:rgb(0,200,222);stop-opacity:1"/></linearGradient>
    </defs>
</svg>
